<?xml version="1.0" encoding="utf-8"?>
<!-- Generator: Adobe Illustrator 23.0.1, SVG Export Plug-In . SVG Version: 6.00 Build 0)  -->
<svg version="1.1" id="Layer_1" xmlns="http://www.w3.org/2000/svg" xmlns:xlink="http://www.w3.org/1999/xlink" x="0px" y="0px"
	 viewBox="0 0 24 24" style="enable-background:new 0 0 24 24;" xml:space="preserve">
<style type="text/css">
	.st0{fill:#518ED6;}
</style>
<path class="st0" d="M12,2c-5,0-9,4-9,9c0,4.2,2.8,7.7,6.7,8.7L12,22l2.3-2.3c3.9-1,6.7-4.5,6.7-8.7C21,6,17,2,12,2z M12,4
	c1.7,0,3,1.3,3,3s-1.3,3-3,3S9,8.7,9,7S10.3,4,12,4z M12,18.3c-2.5,0-4.7-1.3-6-3.2c0-2,4-3.1,6-3.1c2,0,6,1.1,6,3.1
	C16.7,17,14.5,18.3,12,18.3z"/>
</svg>
