<svg xmlns="http://www.w3.org/2000/svg" viewBox="0 0 707.3 178.13"><title>MacAnRigh</title><path d="M96,26.32a9.57,9.57,0,0,0,.12-3.08c-.14-.93-.28-1.72-.44-2.36V21a8.85,8.85,0,0,1-.24-1,2.79,2.79,0,0,1,0-1,2.15,2.15,0,0,1,1.52-1.72,11.38,11.38,0,0,1,2.72-.44,21.38,21.38,0,0,1,6.68,1.4,10.49,10.49,0,0,1,4,2.92,17.31,17.31,0,0,1,3,5,45.22,45.22,0,0,1,2,6.28q.8,3.31,1.28,6.72c.32,2.27.58,4.36.8,6.28l.32,2.16q.48,4.8.88,10.48t.8,11.68q.48,7.68.92,14.12t1.16,11.48q3.12-6.72,7.48-14.6t9-15.84q4.68-8,9.12-15.44t7.64-13.48v-.64a5.25,5.25,0,0,0,0-1.92q-.21-.8-.36-1.44c-.06-.27-.11-.49-.16-.68a1.3,1.3,0,0,1,0-.68,1.5,1.5,0,0,1,.92-1.52,7.91,7.91,0,0,1,2.12-.56,12.34,12.34,0,0,1,5.24.4,6.86,6.86,0,0,1,3.12,2A6.75,6.75,0,0,1,167,34a14.81,14.81,0,0,1,.16,3.72,101.7,101.7,0,0,1-1.4,10.16q-1.08,5.92-2.64,12.72t-3.36,14q-1.8,7.25-3.56,14-1.84,7-3.12,12c-.86,3.39-1.56,6.36-2.12,8.92s-1,4.8-1.32,6.72-.56,3.76-.72,5.52a46.21,46.21,0,0,0-.12,7,20.68,20.68,0,0,0,1.24,6.2,12.22,12.22,0,0,0,3.08,4.68,11.07,11.07,0,0,0,5.4,2.64,3.28,3.28,0,0,0,1.24.12c.5,0,1.05,0,1.64,0h2.12a10.72,10.72,0,0,1,2,.16,4.12,4.12,0,0,1,1.44.52,1.13,1.13,0,0,1,.56,1c0,.69-.64,1.52-1.92,2.48a47.24,47.24,0,0,1-11.12,1,19.42,19.42,0,0,1-9.88-2.8,15.88,15.88,0,0,1-5.6-6.32,24.57,24.57,0,0,1-2.32-8.76,55.23,55.23,0,0,1,0-10.12c.26-3,.68-6.08,1.24-9.12s1.13-5.84,1.72-8.4q.63-3,1.44-6.48t1.68-7.24c.58-2.48,1.2-5,1.84-7.52s1.28-5,1.92-7.32q.8-3.12,1.44-5.72c.42-1.73.84-3.4,1.24-5s.77-3.2,1.12-4.8.73-3.28,1.16-5c-.43.91-.91,1.85-1.44,2.84s-1.22,2.21-2,3.68L145,65q-1.8,3.2-4.52,8T134,84.56q-3.72,6.72-8.76,15.92v-.08a8,8,0,0,1-.4,1.2,8.35,8.35,0,0,0-.4,1.12,15.09,15.09,0,0,1-1.76,3.6,5.44,5.44,0,0,1-3.36,2.08,7.11,7.11,0,0,1-3.08.12,5.41,5.41,0,0,1-2.24-1,6,6,0,0,1-1.52-1.76,9,9,0,0,1-.92-2.24A70.82,70.82,0,0,1,110,95.2q-.69-5-1.2-10.72t-.92-11.92q-.41-6.16-.72-11.92l-.4-8.08-3,9.56c-1,3-1.9,5.93-2.8,8.76q-2.32,7.75-4.48,14.48t-4.56,13.2q-3.21,9-7.16,17.68a121.28,121.28,0,0,1-9,16.4,90.46,90.46,0,0,1-11.28,14,56.71,56.71,0,0,1-14,10.4,37.28,37.28,0,0,1-8.72,3.36,37.94,37.94,0,0,1-9.12,1.12,37.36,37.36,0,0,1-5.52-.4,29.06,29.06,0,0,1-5.28-1.28h.08a29,29,0,0,1-10.24-5.48,30.48,30.48,0,0,1-7-8.52A35.25,35.25,0,0,1,.75,135a45.85,45.85,0,0,1-.56-12.52A52.17,52.17,0,0,1,1.79,113a54.78,54.78,0,0,1,4.88-12.4A49.87,49.87,0,0,1,14.27,90,40.34,40.34,0,0,1,24,82.28a29.37,29.37,0,0,1,11.28-3.64,17,17,0,0,1,9.72,2A17.78,17.78,0,0,1,51.39,87a26.69,26.69,0,0,1,3.28,9.32,43.17,43.17,0,0,1,.4,10.8q-.16,1.27-.36,2.64c-.14.91-.28,1.76-.44,2.56a2.8,2.8,0,0,1-.16.72c-.11.64-.26,1.39-.44,2.24a16.82,16.82,0,0,1-.72,2.4,7.64,7.64,0,0,1-1.08,1.92,1.92,1.92,0,0,1-1.52.8c-.91.11-1.5-.07-1.76-.52a2.34,2.34,0,0,1-.24-1.64,4.37,4.37,0,0,1,.16-1.16c.1-.4.21-.76.32-1.08a3.38,3.38,0,0,0,.24-.72c0-.27.08-.37.08-.32.32-1.12.61-2.35.88-3.68a36.09,36.09,0,0,0,.56-4.08,45.36,45.36,0,0,0,0-6.28,22.84,22.84,0,0,0-1.08-5.76A11.63,11.63,0,0,0,47,90.8a7.4,7.4,0,0,0-4.4-2.16q-2.81-.72-6.72,1.28a34.25,34.25,0,0,0-8,5.84,62.35,62.35,0,0,0-7.76,9,58.6,58.6,0,0,0-6.2,11A53.49,53.49,0,0,0,12,122.24a52.66,52.66,0,0,0-1.12,6.32,38.68,38.68,0,0,0,.24,9,28.24,28.24,0,0,0,2.2,7.72,16.91,16.91,0,0,0,4,5.64,11.84,11.84,0,0,0,5.76,2.88h-.08a10.21,10.21,0,0,0,1.2.08h1.12a26.3,26.3,0,0,0,12.32-3,44.45,44.45,0,0,0,10.76-8,71.54,71.54,0,0,0,9.24-11.4,142.29,142.29,0,0,0,7.76-13.32q3.51-6.88,6.32-13.64t4.88-12.44q1.27-3.36,3.2-9.08t4-12.48q2.11-6.76,4.2-13.92t3.8-13.36q1.71-6.19,2.84-10.8A43.43,43.43,0,0,0,96,26.32Z" fill="#fff"/><path d="M276.62,73.64a1.58,1.58,0,0,0-1.16-.44,4.61,4.61,0,0,0-1.2.4q-.63,1.13-1.44,2.64c-.53,1-1,1.92-1.44,2.72l-3,5.88q-1.63,3.24-3.56,6.6v-.08q-1.59,2.64-3.6,5.76a45.33,45.33,0,0,1-4.4,5.8,25.3,25.3,0,0,1-5.2,4.48,10.75,10.75,0,0,1-5.92,1.8,5.21,5.21,0,0,1-5-2.84,10.41,10.41,0,0,1-1-3,19.52,19.52,0,0,1-.32-3.6c0-.43,0-.89,0-1.4s.07-1,.12-1.4a59.21,59.21,0,0,1,1.8-7.92,85.82,85.82,0,0,1,2.88-8.12,75.43,75.43,0,0,1,3.64-7.56,60.63,60.63,0,0,1,4-6.32,24.29,24.29,0,0,1,4-4.32,5.89,5.89,0,0,1,3.56-1.6,2.39,2.39,0,0,1,1.8.8A6,6,0,0,1,262.42,64a11.21,11.21,0,0,1,.64,2.92,21.57,21.57,0,0,1,.08,3.32,15.59,15.59,0,0,1-.28,1.88c-.13.67-.3,1.37-.52,2.12a3.1,3.1,0,0,0,.84.64,3.36,3.36,0,0,0,.76.24,2.39,2.39,0,0,0,1.64-.52,3,3,0,0,0,.88-1.32,8.24,8.24,0,0,0,.4-1.68c.08-.59.15-1.12.2-1.6a20.17,20.17,0,0,0-.64-6.68,18,18,0,0,0-2.76-6A15,15,0,0,0,259,53.08a12.08,12.08,0,0,0-6.28-1.64,16.17,16.17,0,0,0-7.08,1.64,24.86,24.86,0,0,0-6.4,4.52,38.4,38.4,0,0,0-5.48,6.68,54.64,54.64,0,0,0-4.36,8.16c-.39.92-.76,1.86-1.11,2.8-.18.33-.37.67-.56,1-.62,1.15-1.22,2.36-1.8,3.64-1.07,2-2.26,4.15-3.56,6.52s-2.67,4.72-4.08,7S215.47,98,214,100a38.08,38.08,0,0,1-4.08,5c-.7.59-1.22.77-1.56.56a1.92,1.92,0,0,1-.72-1.36,10.4,10.4,0,0,1-.12-2.6c0-1,.13-2.07.24-3.08s.22-2,.36-2.8.22-1.47.28-1.84a55.42,55.42,0,0,1,1.16-5.52,16.28,16.28,0,0,0,.52-5.52A6.68,6.68,0,0,0,208,78.6q-1.89-1.8-6.6-2.2a8.4,8.4,0,0,0-2.24.44,1.21,1.21,0,0,0-.88,1.48,5.25,5.25,0,0,1-.36,2.64,15.26,15.26,0,0,0-.76,2.08q-1.53,3-3.76,6.92a83.19,83.19,0,0,1-4.84,7.56,40.17,40.17,0,0,1-5.36,6.12q-2.76,2.52-5.24,2.52a3.37,3.37,0,0,1-2.24-.68,4,4,0,0,1-1.2-1.76,7.17,7.17,0,0,1-.44-2.36,21,21,0,0,1,0-2.4,29,29,0,0,1,1.28-6.08,77,77,0,0,1,2.92-8q1.8-4.28,4.12-8.6a58.63,58.63,0,0,1,5-7.8,29.64,29.64,0,0,1,5.52-5.68,9.35,9.35,0,0,1,5.68-2.2,5.92,5.92,0,0,1,3.68,1.16,9.14,9.14,0,0,1,2.48,2.92,12.32,12.32,0,0,1,1.32,4,21.13,21.13,0,0,1,.28,4.2c-.11.59-.2,1.13-.28,1.64a9.17,9.17,0,0,1-.44,1.64,2.08,2.08,0,0,0,1.68,1,4.28,4.28,0,0,0,1.08-.24,1.9,1.9,0,0,0,.92-.48l.08-.08a18.18,18.18,0,0,0,1-4.32,21,21,0,0,0-.6-6.68,18.74,18.74,0,0,0-2.68-6,15.16,15.16,0,0,0-4.56-4.36,11.66,11.66,0,0,0-6.24-1.68,18.81,18.81,0,0,0-8.8,2.2,34.7,34.7,0,0,0-8,5.84,51.16,51.16,0,0,0-7,8.36,78,78,0,0,0-5.64,9.72,73.34,73.34,0,0,0-4,9.88,48.32,48.32,0,0,0-2,8.88,7.55,7.55,0,0,0-.08,1.2v1.12a23.15,23.15,0,0,0,.56,5.2,12,12,0,0,0,1.84,4.32,9.31,9.31,0,0,0,3.44,3,11.32,11.32,0,0,0,5.28,1.12,14.29,14.29,0,0,0,6.56-1.64,28.61,28.61,0,0,0,6.12-4.28,45.46,45.46,0,0,0,5.52-6,76.39,76.39,0,0,0,4.76-7c-.06.37-.08.57-.08.6v.2a26.89,26.89,0,0,0-.24,5,24.84,24.84,0,0,0,.84,5.88,13.29,13.29,0,0,0,2.36,4.88,5.36,5.36,0,0,0,4.48,2,11.94,11.94,0,0,0,4.4-.88,13.57,13.57,0,0,0,3.84-2.24,28.7,28.7,0,0,0,3.88-4,63.83,63.83,0,0,0,4-5.56q2-3,3.92-6.4,1.4-2.41,2.67-4.78c0,.23,0,.47-.08.7V90.4a16.08,16.08,0,0,0-.16,2.12v2a38.79,38.79,0,0,0,.8,8,21.12,21.12,0,0,0,2.6,6.72,13.9,13.9,0,0,0,4.72,4.68,13.52,13.52,0,0,0,7.08,1.76,21.49,21.49,0,0,0,10-2.24,30.14,30.14,0,0,0,7.76-5.68,44.27,44.27,0,0,0,6-7.64q2.64-4.2,4.8-8,2.57-4.39,4.68-8.52c1.42-2.75,2.6-5.11,3.56-7.08l.8-1.76A3.79,3.79,0,0,0,276.62,73.64Z" fill="#fff"/><path d="M422.22,73.64A1.67,1.67,0,0,0,421,73.2a1.36,1.36,0,0,0-1.2.48q-.31.48-.72,1.2l-.32.64a.69.69,0,0,0-.24.48l-2.08,3.92c-1,1.81-2.08,3.87-3.36,6.16s-2.64,4.67-4.08,7.12-2.86,4.69-4.28,6.72a44.11,44.11,0,0,1-4,5c-1.22,1.31-2.21,2-3,2a1.2,1.2,0,0,1-1-.64,4.56,4.56,0,0,1-.56-1.6,18.08,18.08,0,0,1-.2-2c0-.72,0-1.35,0-1.88a49.67,49.67,0,0,1,1.92-8.4q1.53-5,3.28-10.08,2.08-5.59,3.76-11.16A50.27,50.27,0,0,0,407,61a19.49,19.49,0,0,0-.08-4,7.64,7.64,0,0,0-1.08-3.16,6,6,0,0,0-2.28-2.08,7.79,7.79,0,0,0-3.68-.76,11.46,11.46,0,0,0-6,1.72,25.5,25.5,0,0,0-5.4,4.48,53.57,53.57,0,0,0-4.88,6.16c-1.54,2.27-3,4.52-4.48,6.76q-1.11,1.61-2,3.12c-.61,1-1.24,2-1.88,2.88.11-.48.23-1,.36-1.52s.28-1.09.44-1.68c.38-1.28.71-2.65,1-4.12a33.31,33.31,0,0,0,.6-4.36,17.47,17.47,0,0,0-.12-4A8.9,8.9,0,0,0,376.14,57a7.39,7.39,0,0,0-2.84-2.6,10.16,10.16,0,0,0-4.88-1,5.05,5.05,0,0,0-2,.4,1.66,1.66,0,0,0-1,1.52c0,.21,0,.43,0,.64s.07.45.12.72c.11.53.2,1.12.28,1.76a11.61,11.61,0,0,1,0,2.24,51.14,51.14,0,0,1-1.08,6.48q-.84,3.76-2,8.08c-.23.94-.48,1.91-.73,2.89q-.43.9-.87,1.83c-1.06,2-2.25,4.15-3.56,6.52s-2.66,4.72-4.08,7S350.74,98,349.3,100a38.08,38.08,0,0,1-4.08,5c-.69.59-1.21.77-1.56.56a2,2,0,0,1-.72-1.36,11.45,11.45,0,0,1-.12-2.6c.06-1,.14-2.07.24-3.08s.23-2,.36-2.8.23-1.47.28-1.84q.41-2.57,1.16-5.52a16,16,0,0,0,.52-5.52,6.64,6.64,0,0,0-2.12-4.28q-1.87-1.8-6.6-2.2a8.48,8.48,0,0,0-2.24.44,1.23,1.23,0,0,0-.88,1.48,5,5,0,0,1-.36,2.64,16.74,16.74,0,0,0-.76,2.08q-1.51,3-3.76,6.92a79.07,79.07,0,0,1-4.84,7.56,39.63,39.63,0,0,1-5.36,6.12c-1.84,1.68-3.58,2.52-5.24,2.52a3.39,3.39,0,0,1-2.24-.68,4.19,4.19,0,0,1-1.2-1.76,7.73,7.73,0,0,1-.44-2.36c0-.85,0-1.65,0-2.4a30.3,30.3,0,0,1,1.28-6.08,79.39,79.39,0,0,1,2.92-8q1.8-4.28,4.12-8.6a59.66,59.66,0,0,1,5-7.8,29.64,29.64,0,0,1,5.52-5.68,9.37,9.37,0,0,1,5.68-2.2,5.9,5.9,0,0,1,3.68,1.16A9,9,0,0,1,340,64.64a12.32,12.32,0,0,1,1.32,4,20.4,20.4,0,0,1,.28,4.2c-.1.59-.2,1.13-.28,1.64a8.39,8.39,0,0,1-.44,1.64,2.08,2.08,0,0,0,1.68,1,4.11,4.11,0,0,0,1.08-.24,1.8,1.8,0,0,0,.92-.48l.08-.08a18.18,18.18,0,0,0,1-4.32,21,21,0,0,0-.6-6.68,18.53,18.53,0,0,0-2.68-6,14.93,14.93,0,0,0-4.56-4.36,11.61,11.61,0,0,0-6.24-1.68,18.84,18.84,0,0,0-8.8,2.2,35.12,35.12,0,0,0-8,5.84,52.18,52.18,0,0,0-7,8.36,80.61,80.61,0,0,0-5.64,9.72,74.67,74.67,0,0,0-4,9.88,48.32,48.32,0,0,0-2,8.88,9,9,0,0,0-.08,1.2v1.12a23.75,23.75,0,0,0,.56,5.2,12.41,12.41,0,0,0,1.84,4.32,9.39,9.39,0,0,0,3.44,3,11.32,11.32,0,0,0,5.28,1.12,14.26,14.26,0,0,0,6.56-1.64,28.12,28.12,0,0,0,6.12-4.28,44.14,44.14,0,0,0,5.52-6A74.43,74.43,0,0,0,330,95c0,.37-.08.57-.08.6v.2a28.72,28.72,0,0,0-.24,5,25.91,25.91,0,0,0,.84,5.88,13.62,13.62,0,0,0,2.36,4.88,5.37,5.37,0,0,0,4.48,2,11.9,11.9,0,0,0,4.4-.88,13.3,13.3,0,0,0,3.84-2.24,28.15,28.15,0,0,0,3.88-4,61.79,61.79,0,0,0,4-5.56q2-3,3.92-6.4c.62-1.06,1.21-2.1,1.79-3.15,0,.22-.07.45-.11.67q-.44,2.88-.68,5.52-.07.89-.12,1.68c0,.53,0,1.07,0,1.6a27.34,27.34,0,0,0,.44,4.88,13.49,13.49,0,0,0,1.52,4.28,8.4,8.4,0,0,0,3,3,9.17,9.17,0,0,0,4.8,1.16c1.18,0,1.76-.37,1.76-1.12a3.82,3.82,0,0,0-.24-1.12c-.16-.59-.32-1.33-.48-2.24a19.23,19.23,0,0,1-.24-3.28v-1.24a10.73,10.73,0,0,1,.08-1.24,58.78,58.78,0,0,1,1.28-8,47.62,47.62,0,0,1,2.32-7.48h-.08l1.28-2.24v.08c.75-1.23,1.67-2.77,2.76-4.64s2.31-3.85,3.64-6,2.72-4.2,4.16-6.28,2.87-4,4.28-5.64a33.19,33.19,0,0,1,4-4.08,5.55,5.55,0,0,1,3.32-1.56q.81,0,.72,1.44a22.24,22.24,0,0,1-1.4,5Q394,68,392.34,72.32q-1.2,3.12-2.52,6.68c-.88,2.37-1.69,4.79-2.44,7.24s-1.42,4.85-2,7.2a45.56,45.56,0,0,0-1.24,6.64,9,9,0,0,0-.08,1.2v1.12a17.76,17.76,0,0,0,.52,4.4,9.55,9.55,0,0,0,1.64,3.44,7.73,7.73,0,0,0,3,2.28,11.52,11.52,0,0,0,4.68.84,9,9,0,0,0,5-1.6,24.58,24.58,0,0,0,4.92-4.32,53.33,53.33,0,0,0,4.76-6.2q2.33-3.48,4.44-7.2t4-7.44l3.48-6.84c.43-.91.87-1.81,1.32-2.72s.87-1.68,1.24-2.32A3.79,3.79,0,0,0,422.22,73.64Z" fill="#fff"/><path d="M576.42,51.6a7.3,7.3,0,0,0,4.32-1.48,5.48,5.48,0,0,0,2.32-4.2,7.13,7.13,0,0,0-.28-2.44,13.51,13.51,0,0,0-1.24-2.92,6.64,6.64,0,0,0-2-2.08,4.09,4.09,0,0,0-2.12-.64,3.86,3.86,0,0,0-2.12.64,6.24,6.24,0,0,0-1.72,1.68,10.25,10.25,0,0,0-1.2,2.36,9.55,9.55,0,0,0-.56,2.6c-.1,2.24.32,3.88,1.28,4.92A4.44,4.44,0,0,0,576.42,51.6Z" fill="#fff"/><path d="M706.5,73.64a1.61,1.61,0,0,0-1.12-.44,1.56,1.56,0,0,0-1.32.48A9,9,0,0,0,703.3,75h.08l-.24.56c-.16.27-.67,1.23-1.52,2.88s-1.92,3.65-3.2,6-2.68,4.83-4.2,7.44-3,5-4.56,7.28a54.05,54.05,0,0,1-4.24,5.56c-1.31,1.47-2.39,2.2-3.24,2.2a1.19,1.19,0,0,1-1-.64,4.37,4.37,0,0,1-.56-1.6,16,16,0,0,1-.2-2c0-.72,0-1.35,0-1.88a47.85,47.85,0,0,1,1.92-8.52q1.51-4.92,3.36-10.2,1.85-5.52,3.56-11A48.64,48.64,0,0,0,691.3,61a14.87,14.87,0,0,0,0-4,9,9,0,0,0-1.08-3.16,5.44,5.44,0,0,0-2.28-2.12,7.87,7.87,0,0,0-3.64-.76,11.44,11.44,0,0,0-6,1.72,25.5,25.5,0,0,0-5.4,4.48,52.51,52.51,0,0,0-4.88,6.16q-2.33,3.41-4.48,6.76c-.75,1.07-1.41,2.11-2,3.12a28.82,28.82,0,0,1-1.92,2.88l2.8-12.48q1-4.32,2-8.92t2-8.64q.88-4,1.48-7.08c.4-2,.65-3.44.76-4.24a17.86,17.86,0,0,0-.12-4,8.78,8.78,0,0,0-1.28-3.56,7.59,7.59,0,0,0-2.88-2.56,10.41,10.41,0,0,0-4.92-1,5.24,5.24,0,0,0-2,.36,1.55,1.55,0,0,0-1,1.48,5.49,5.49,0,0,0,0,.68c0,.24.07.49.12.76.11.53.2,1.11.28,1.72a12.72,12.72,0,0,1,0,2.28c-.11,1-.33,2.33-.68,4.12s-.77,3.88-1.28,6.28-1.11,5-1.8,7.88-1.39,5.8-2.08,8.84q-1.37,5.69-2.72,11.52c-.56,2.43-1.1,4.77-1.61,7.05-.94,1.85-1.94,3.78-3,5.83q-1.92,3.6-4,7T635.34,96a35.07,35.07,0,0,1-4.36,5q.64-4.8,1.12-9.16t.88-8.68A11,11,0,0,0,632.1,80a7.61,7.61,0,0,0-1.84-2.48,8.34,8.34,0,0,0-3.08-1.68,15,15,0,0,0-4.52-.6,6.59,6.59,0,0,0-2.08.44,1.71,1.71,0,0,0-1,1.48v.6a2.62,2.62,0,0,0,.16.84l.32,1.84v.76a4.18,4.18,0,0,1-.08.76,11.48,11.48,0,0,1-.56,2.24c-.27.75-.53,1.41-.8,2q-1.68,3.2-3.76,6.68a59.47,59.47,0,0,1-4.36,6.36,28.79,28.79,0,0,1-4.6,4.72,7.38,7.38,0,0,1-4.56,1.84,3.37,3.37,0,0,1-2.24-.68,3.86,3.86,0,0,1-1.16-1.76,9.15,9.15,0,0,1-.44-2.36,11.8,11.8,0,0,1,.08-2.4,29.61,29.61,0,0,1,1.28-6.08,79.39,79.39,0,0,1,2.92-8q1.8-4.27,4.12-8.6a59.66,59.66,0,0,1,5-7.8,29.64,29.64,0,0,1,5.52-5.68,9.35,9.35,0,0,1,5.68-2.2,5.9,5.9,0,0,1,3.68,1.16,8.67,8.67,0,0,1,2.44,2.92,13.06,13.06,0,0,1,1.28,4,21.13,21.13,0,0,1,.28,4.2c-.11.59-.2,1.15-.28,1.68a9.1,9.1,0,0,1-.44,1.68,2.19,2.19,0,0,0,1.76.88,4.09,4.09,0,0,0,1-.28,2.17,2.17,0,0,0,1-.52,14.1,14.1,0,0,0,.6-2.16q.2-1,.36-2.16a19.58,19.58,0,0,0-.52-6.68,18.53,18.53,0,0,0-2.68-6,15,15,0,0,0-4.6-4.36,11.83,11.83,0,0,0-6.28-1.68,18.84,18.84,0,0,0-8.8,2.2,34.08,34.08,0,0,0-8,5.84,52.52,52.52,0,0,0-7,8.36A80.61,80.61,0,0,0,590.22,79,75.57,75.57,0,0,0,587,86.75c-.77,1.41-1.55,2.82-2.37,4.25-1.17,2-2.34,4-3.52,5.92s-2.32,3.59-3.44,5.08a26.72,26.72,0,0,1-3.16,3.6,4.13,4.13,0,0,1-2.6,1.36q-1.35-.08-1.92-1.8a15.08,15.08,0,0,1-.56-4.52c0-.43,0-1,0-1.56s.07-1.19.12-1.72c.27-2.24.65-4.69,1.16-7.36s1.08-5.35,1.72-8,1.3-5.25,2-7.68,1.27-4.49,1.8-6.2c.32-1.07.58-2,.76-3a12.15,12.15,0,0,0,.28-2.48,4.91,4.91,0,0,0-1.52-3.76,14,14,0,0,0-4.88-2.64,4.39,4.39,0,0,0-2.08-.12,1.65,1.65,0,0,0-1.28,1.24,6.69,6.69,0,0,0-.16,1.52,12.33,12.33,0,0,1-.24,2.24V61l-1.12,3.68q-2.48,7.61-4.56,15.16a84.35,84.35,0,0,0-2.72,15.4c0,.64-.09,1.29-.12,2s0,1.32,0,2a31,31,0,0,0,.48,5.64,13.93,13.93,0,0,0,1.64,4.56,8.71,8.71,0,0,0,3,3.08,9,9,0,0,0,4.68,1.12,8.41,8.41,0,0,0,4.88-1.84,28.47,28.47,0,0,0,5.12-4.88,70.7,70.7,0,0,0,5.12-7c.21-.32.41-.65.61-1,0,0,0,.09,0,.13,0,.45,0,.87,0,1.24a22.7,22.7,0,0,0,.56,5.12,11.92,11.92,0,0,0,1.88,4.24,9.41,9.41,0,0,0,3.44,2.92,11.45,11.45,0,0,0,5.24,1.08,14,14,0,0,0,6.32-1.56,27.47,27.47,0,0,0,6-4.08,45.28,45.28,0,0,0,5.4-5.76q2.56-3.24,4.8-6.68L616.34,101c-.43,1.71-.85,3.57-1.28,5.6s-.85,4.08-1.28,6.16q-5.44,4.73-10.56,9.72a110.4,110.4,0,0,0-9.52,10.56,85.2,85.2,0,0,0-7.84,11.84,62.27,62.27,0,0,0-4.25,9.71,1.29,1.29,0,0,0-.23-.39,1.2,1.2,0,0,0-.68-.48,1.27,1.27,0,0,0-.76.08,1.24,1.24,0,0,0-.24.16l-.08.08a3.86,3.86,0,0,0-.6,0c-.18,0-.46,0-.84.08s-.84,0-1.4,0h-2.2a30.56,30.56,0,0,1-11-2,38.06,38.06,0,0,1-9.56-5.36,51.36,51.36,0,0,1-8.28-8,100.15,100.15,0,0,1-7.24-10q-3.4-5.32-6.52-11.12t-6-11.48l-5.28-10.24h.16c.16,0,.43,0,.8,0l1-.08c.27,0,.47,0,.6-.08s0,0-.28,0h-.08a39.12,39.12,0,0,0,15.72-6.72,52.39,52.39,0,0,0,12.32-12.36,58.61,58.61,0,0,0,8-15.92,55.5,55.5,0,0,0,2.84-17.4,54.48,54.48,0,0,0-1-10.44,45.42,45.42,0,0,0-3.08-9.84,39.25,39.25,0,0,0-5.32-8.72,35.11,35.11,0,0,0-7.72-7.08,40.75,40.75,0,0,0-12.64-5.6A58,58,0,0,0,517.54,0a61.48,61.48,0,0,0-8.36.6,84.22,84.22,0,0,0-8.72,1.68A80.89,80.89,0,0,0,491.78,5a78.78,78.78,0,0,0-8.24,3.6,112.31,112.31,0,0,0-12,7.6A94.48,94.48,0,0,0,459.9,26,84.63,84.63,0,0,0,450,37.92a56.28,56.28,0,0,0-6.88,13.68,34.57,34.57,0,0,0-1.64,6.2,37.55,37.55,0,0,0-.52,6,36.48,36.48,0,0,0,1.32,9.8A27.06,27.06,0,0,0,446.22,82a20.1,20.1,0,0,0,6.44,5.88,17.51,17.51,0,0,0,8.88,2.2,24,24,0,0,0,8.56-1.6,24.48,24.48,0,0,0,6.08-3.24,20.46,20.46,0,0,0,5-5.48,28.44,28.44,0,0,0,1.92-4,10.76,10.76,0,0,0,.72-3.88c-.58-1.44-1.17-2.12-1.76-2a4.29,4.29,0,0,0-1.92.92,14.25,14.25,0,0,1-1,3.64,12,12,0,0,1-1.56,2.68l-.08.24.08-.08a13.38,13.38,0,0,1-4,3.6A13.62,13.62,0,0,1,469,82.56H466.5a13.21,13.21,0,0,1-6.84-1.72,14.86,14.86,0,0,1-4.84-4.6,21.46,21.46,0,0,1-2.88-6.6,30.75,30.75,0,0,1-1-7.72c0-1.07,0-2.13.12-3.2a27,27,0,0,1,.44-3.2,42.61,42.61,0,0,1,4.48-13,54.06,54.06,0,0,1,8-11.12,61,61,0,0,1,10.44-9,72.4,72.4,0,0,1,11.84-6.56,79.66,79.66,0,0,1,11.56-3.12,55.49,55.49,0,0,1,10-1A34.09,34.09,0,0,1,523.34,15a30.48,30.48,0,0,1,10.56,8.52,34.67,34.67,0,0,1,6,12.12,51.7,51.7,0,0,1,1.92,14,56.14,56.14,0,0,1-2,14.76,44.42,44.42,0,0,1-5.64,12.88,30.77,30.77,0,0,1-8.84,9,19.71,19.71,0,0,1-11.64,3.24q1.92-11.76,3.08-21.52a143.8,143.8,0,0,0,1.08-18.56,23.19,23.19,0,0,0-.52-4.2,8.26,8.26,0,0,0-1.72-3.6,8.1,8.1,0,0,0-3.48-2.4,14.64,14.64,0,0,0-5.8-.68,5.62,5.62,0,0,0-2.28.56,1.49,1.49,0,0,0-.92,1.36l.48,1.36a10.17,10.17,0,0,1,.44,1.84,14.4,14.4,0,0,1,.2,2.48h.08q-.48,6.56-1.28,14.16t-1.92,15.48q-1.11,7.88-2.6,15.72t-3.24,14.8a82.83,82.83,0,0,1-3.16,9.76,37.42,37.42,0,0,1-4.64,8.56,23.33,23.33,0,0,1-6.48,6.08,15.87,15.87,0,0,1-8.6,2.32,25,25,0,0,1-6.48-.8c-1.49.43-2.28,1-2.36,1.64a3,3,0,0,0,1.08,2.28,42.2,42.2,0,0,0,7.44,2.32,33.22,33.22,0,0,0,6.64.72,22.75,22.75,0,0,0,11.8-3,30.69,30.69,0,0,0,9-8.16,55.14,55.14,0,0,0,6.72-11.92,126.6,126.6,0,0,0,5-14.36q1.68,6.16,4,12.76a116.12,116.12,0,0,0,5.48,13,84.62,84.62,0,0,0,7.32,12.08,51,51,0,0,0,9.64,10,45.44,45.44,0,0,0,12.4,6.88,44.55,44.55,0,0,0,15.56,2.56,69.45,69.45,0,0,0,14.48-1.68,1.63,1.63,0,0,0,.68-.4c-.14.48-.3,1-.44,1.44a22.14,22.14,0,0,0-.72,5.52,16.42,16.42,0,0,0,2.68,9.6,10,10,0,0,0,7.24,4.4,15.07,15.07,0,0,0,9.56-1.88,28.41,28.41,0,0,0,8.24-7.36,60.23,60.23,0,0,0,7-11.68,136.24,136.24,0,0,0,5.84-14.8q2.64-8,4.84-16.72t4-17.56a26.16,26.16,0,0,0,5.72-5.4,85.19,85.19,0,0,0,5.88-8.12c1.21-1.88,2.38-3.83,3.53-5.81-.12.59-.23,1.17-.33,1.73q-.79,4.39-1,7.2-.08.89-.12,1.68c0,.53,0,1.07,0,1.6a27.34,27.34,0,0,0,.44,4.88,13.49,13.49,0,0,0,1.52,4.28,8.53,8.53,0,0,0,3,3,9,9,0,0,0,4.76,1.16c1.23,0,1.84-.37,1.84-1.12a4,4,0,0,0-.24-1.2c-.16-.75-.33-1.79-.52-3.12a24.41,24.41,0,0,1-.12-4.8,77.3,77.3,0,0,1,1.32-8,41,41,0,0,1,2.28-7.44h-.08l1.28-2.24v.08c.75-1.23,1.67-2.77,2.76-4.64s2.31-3.85,3.64-6,2.72-4.2,4.16-6.28,2.87-4,4.28-5.64a32.48,32.48,0,0,1,4-4.08,5.53,5.53,0,0,1,3.32-1.56q.79,0,.72,1.44a22.81,22.81,0,0,1-1.4,5c-.83,2.24-1.77,4.8-2.84,7.68q-1.2,3.12-2.48,6.68c-.85,2.37-1.67,4.79-2.44,7.24s-1.45,4.85-2,7.2a57.91,57.91,0,0,0-1.28,6.64,9,9,0,0,0-.08,1.2v1.2a18.83,18.83,0,0,0,.48,4.4,8.66,8.66,0,0,0,1.64,3.44,7.65,7.65,0,0,0,3,2.24,11.74,11.74,0,0,0,4.64.8,9,9,0,0,0,4.92-1.64A24.75,24.75,0,0,0,688,107.4a58.06,58.06,0,0,0,4.76-6.16q2.36-3.48,4.52-7.24c1.44-2.51,2.8-5,4.08-7.52s2.45-4.8,3.52-6.88l2.4-4.88A3.54,3.54,0,0,0,706.5,73.64Zm-94.56,47-.48,2.16-1.68,5.52q-1.37,4.32-2.92,9.24t-3.4,9.72q-1.85,4.8-3.92,9.08a40.44,40.44,0,0,1-4.48,7.32,18.24,18.24,0,0,1-3.32,3.4,7.46,7.46,0,0,1-3.64,1.56,3.44,3.44,0,0,1-3.08-1.36,6,6,0,0,1-.92-3.44A21.61,21.61,0,0,1,585,158a60.72,60.72,0,0,1,2.24-6.44c.88-2.13,1.78-4.09,2.68-5.88s1.65-3.16,2.24-4.12a94.23,94.23,0,0,1,20.08-21.92Z" fill="#fff"/></svg>